*** What.Becomes.Of.The.Broken.Hearted.1999.SWESUB.DVDRip.XviD.Zen_Bud ***


Format                           : AVI
File size                        : 700 MiB
Duration                         : 1h 40mn
Overall bit rate                 : 972 Kbps


Video

Format                           : MPEG-4 Visual
Codec ID/Hint                    : XviD
Duration                         : 1h 40mn
Bit rate                         : 855 Kbps
Width                            : 512 pixels
Height                           : 384 pixels
Display aspect ratio             : 4:3
Stream size                      : 615 MiB (88%)
Writing library                  : XviD 1.2.1 (UTC 2008-12-04)

Audio

Format                           : MPEG Audio
Codec ID/Hint                    : MP3
Duration                         : 1h 40mn
Nominal bit rate                 : 112 Kbps
Channel(s)                       : 2 channels
Sampling rate                    : 44.1 KHz
Stream size                      : 75.5 MiB (11%)
Interleave, preload duration     : 508 ms
Writing library                  : LAME3.98r


